{"asset":{"version":"2.0","generator":"Blockbench 4.8.3 glTF exporter"},"scenes":[{"nodes":[3],"name":"blockbench_export"}],"scene":0,"nodes":[{"name":"cuboid","mesh":0},{"name":"tube","mesh":1},{"name":"bone","children":[1]},{"children":[0,2]}],"bufferViews":[{"buffer":0,"byteOffset":0,"byteLength":288,"target":34962,"byteStride":12},{"buffer":0,"byteOffset":288,"byteLength":288,"target":34962,"byteStride":12},{"buffer":0,"byteOffset":576,"byteLength":192,"target":34962,"byteStride":8},{"buffer":0,"byteOffset":768,"byteLength":72,"target":34963},{"buffer":0,"byteOffset":840,"byteLength":1536,"target":34962,"byteStride":12},{"buffer":0,"byteOffset":2376,"byteLength":1536,"target":34962,"byteStride":12},{"buffer":0,"byteOffset":3912,"byteLength":1024,"target":34962,"byteStride":8},{"buffer":0,"byteOffset":4936,"byteLength":384,"target":34963},{"buffer":0,"byteOffset":5320,"byteLength":12},{"buffer":0,"byteOffset":5332,"byteLength":36}],"buffers":[{"byteLength":5368,"uri":"data:application/octet-stream;base64,"}],"accessors":[{"bufferView":0,"componentType":5126,"count":24,"max":[0.40625,1,0.40625],"min":[-0.40625,0,-0.40625],"type":"VEC3"},{"bufferView":1,"componentType":5126,"count":24,"max":[1,1,1],"min":[-1,-1,-1],"type":"VEC3"},{"bufferView":2,"componentType":5126,"count":24,"max":[0.640625,0.515625],"min":[0,0],"type":"VEC2"},{"bufferView":3,"componentType":5123,"count":36,"max":[23],"min":[0],"type":"SCALAR"},{"bufferView":4,"componentType":5126,"count":128,"max":[0.15625,1.125,0.15625],"min":[-0.15625,0.125,-0.15625],"type":"VEC3"},{"bufferView":5,"componentType":5126,"count":128,"max":[1,1,1],"min":[-1,-1,-1],"type":"VEC3"},{"bufferView":6,"componentType":5126,"count":128,"max":[0.609375,0.875],"min":[0,0.4375],"type":"VEC2"},{"bufferView":7,"componentType":5123,"count":192,"max":[127],"min":[0],"type":"SCALAR"},{"bufferView":8,"componentType":5126,"count":3,"max":[1],"min":[0],"type":"SCALAR"},{"bufferView":9,"componentType":5126,"count":3,"max":[0,0.8125,0],"min":[0,0,0],"type":"VEC3"}],"materials":[{"pbrMetallicRoughness":{"metallicFactor":0,"roughnessFactor":1,"baseColorTexture":{"index":0}},"alphaMode":"MASK","alphaCutoff":0.05,"doubleSided":true}],"textures":[{"sampler":0,"source":0,"name":"texture"}],"samplers":[{"magFilter":9728,"minFilter":9728,"wrapS":33071,"wrapT":33071}],"images":[{"mimeType":"image/png","uri":"data:image/png;base64,"}],"meshes":[{"primitives":[{"mode":4,"attributes":{"POSITION":0,"NORMAL":1,"TEXCOORD_0":2},"indices":3,"material":0}]},{"primitives":[{"mode":4,"attributes":{"POSITION":4,"NORMAL":5,"TEXCOORD_0":6},"indices":7,"material":0}]}],"animations":[{"name":"animation.model.new","samplers":[{"input":8,"output":9,"interpolation":"LINEAR"}],"channels":[{"sampler":0,"target":{"node":2,"path":"translation"}}]}]}