{"asset":{"version":"2.0","generator":"Blockbench 4.8.3 glTF exporter"},"scenes":[{"nodes":[12],"name":"blockbench_export"}],"scene":0,"nodes":[{"rotation":[0,0,-0.10886687485196457,0.9940563382223196],"translation":[0,0,-0.0625],"name":"cuboid","mesh":0},{"name":"handel","children":[0]},{"name":"cuboid","mesh":1},{"translation":[0,0,-0.0625],"name":"cuboid","mesh":2},{"name":"body","children":[2,3]},{"translation":[0,0,-0.0625],"name":"cylinder","mesh":3},{"translation":[0,0,-0.0625],"name":"cylinder","mesh":4},{"translation":[0,0,-0.0625],"name":"cylinder","mesh":5},{"name":"barrel","children":[5,6,7]},{"translation":[0,0,-0.0625],"name":"cylinder","mesh":6},{"translation":[0,0,-0.0625],"name":"cylinder","mesh":7},{"name":"mag","children":[9,10]},{"children":[1,4,8,11]}],"bufferViews":[{"buffer":0,"byteOffset":0,"byteLength":288,"target":34962,"byteStride":12},{"buffer":0,"byteOffset":288,"byteLength":288,"target":34962,"byteStride":12},{"buffer":0,"byteOffset":576,"byteLength":192,"target":34962,"byteStride":8},{"buffer":0,"byteOffset":768,"byteLength":72,"target":34963},{"buffer":0,"byteOffset":840,"byteLength":1344,"target":34962,"byteStride":12},{"buffer":0,"byteOffset":2184,"byteLength":1344,"target":34962,"byteStride":12},{"buffer":0,"byteOffset":3528,"byteLength":896,"target":34962,"byteStride":8},{"buffer":0,"byteOffset":4424,"byteLength":336,"target":34963},{"buffer":0,"byteOffset":4760,"byteLength":3744,"target":34962,"byteStride":12},{"buffer":0,"byteOffset":8504,"byteLength":3744,"target":34962,"byteStride":12},{"buffer":0,"byteOffset":12248,"byteLength":2496,"target":34962,"byteStride":8},{"buffer":0,"byteOffset":14744,"byteLength":936,"target":34963},{"buffer":0,"byteOffset":15680,"byteLength":1440,"target":34962,"byteStride":12},{"buffer":0,"byteOffset":17120,"byteLength":1440,"target":34962,"byteStride":12},{"buffer":0,"byteOffset":18560,"byteLength":960,"target":34962,"byteStride":8},{"buffer":0,"byteOffset":19520,"byteLength":288,"target":34963},{"buffer":0,"byteOffset":19808,"byteLength":1728,"target":34962,"byteStride":12},{"buffer":0,"byteOffset":21536,"byteLength":1728,"target":34962,"byteStride":12},{"buffer":0,"byteOffset":23264,"byteLength":1152,"target":34962,"byteStride":8},{"buffer":0,"byteOffset":24416,"byteLength":360,"target":34963},{"buffer":0,"byteOffset":24776,"byteLength":960,"target":34962,"byteStride":12},{"buffer":0,"byteOffset":25736,"byteLength":960,"target":34962,"byteStride":12},{"buffer":0,"byteOffset":26696,"byteLength":640,"target":34962,"byteStride":8},{"buffer":0,"byteOffset":27336,"byteLength":192,"target":34963},{"buffer":0,"byteOffset":27528,"byteLength":1440,"target":34962,"byteStride":12},{"buffer":0,"byteOffset":28968,"byteLength":1440,"target":34962,"byteStride":12},{"buffer":0,"byteOffset":30408,"byteLength":960,"target":34962,"byteStride":8},{"buffer":0,"byteOffset":31368,"byteLength":288,"target":34963},{"buffer":0,"byteOffset":31656,"byteLength":960,"target":34962,"byteStride":12},{"buffer":0,"byteOffset":32616,"byteLength":960,"target":34962,"byteStride":12},{"buffer":0,"byteOffset":33576,"byteLength":640,"target":34962,"byteStride":8},{"buffer":0,"byteOffset":34216,"byteLength":192,"target":34963}],"buffers":[{"byteLength":34408,"uri":"data:application/octet-stream;base64,"}],"accessors":[{"bufferView":0,"componentType":5126,"count":24,"max":[0.4375,0.875,0.25],"min":[-0.5,-0.625,-0.125],"type":"VEC3"},{"bufferView":1,"componentType":5126,"count":24,"max":[1,1,1],"min":[-1,-1,-1],"type":"VEC3"},{"bufferView":2,"componentType":5126,"count":24,"max":[0.53515625,0.5],"min":[0.15625,0.078125],"type":"VEC2"},{"bufferView":3,"componentType":5123,"count":36,"max":[23],"min":[0],"type":"SCALAR"},{"bufferView":4,"componentType":5126,"count":112,"max":[3.4375,2,0.375],"min":[-1,0.75,-0.375],"type":"VEC3"},{"bufferView":5,"componentType":5126,"count":112,"max":[1,1,1],"min":[-1,-1,-1],"type":"VEC3"},{"bufferView":6,"componentType":5126,"count":112,"max":[0.5690515637397766,0.47140955924987793],"min":[0,0],"type":"VEC2"},{"bufferView":7,"componentType":5123,"count":168,"max":[111],"min":[0],"type":"SCALAR"},{"bufferView":8,"componentType":5126,"count":312,"max":[2.25,2.1875,0.375],"min":[0.75,2,-0.25],"type":"VEC3"},{"bufferView":9,"componentType":5126,"count":312,"max":[1,1,1],"min":[-1,-1,-1],"type":"VEC3"},{"bufferView":10,"componentType":5126,"count":312,"max":[0.57421875,0.53515625],"min":[0,0],"type":"VEC2"},{"bufferView":11,"componentType":5123,"count":468,"max":[311],"min":[0],"type":"SCALAR"},{"bufferView":12,"componentType":5126,"count":120,"max":[9.5625,2,0.375],"min":[3.4375,1.375,-0.25],"type":"VEC3"},{"bufferView":13,"componentType":5126,"count":120,"max":[1,1,1],"min":[-1,-1,-1],"type":"VEC3"},{"bufferView":14,"componentType":5126,"count":120,"max":[0.64453125,0.6875],"min":[0,0.003756225109100342],"type":"VEC2"},{"bufferView":15,"componentType":5123,"count":144,"max":[119],"min":[0],"type":"SCALAR"},{"bufferView":16,"componentType":5126,"count":144,"max":[9.4375,2.0625,0.4375],"min":[8.9375,0.6875,-0.3125],"type":"VEC3"},{"bufferView":17,"componentType":5126,"count":144,"max":[1,1,1],"min":[-1,-1,-1],"type":"VEC3"},{"bufferView":18,"componentType":5126,"count":144,"max":[0.5110277533531189,0.51171875],"min":[0.21875,0.3046875],"type":"VEC2"},{"bufferView":19,"componentType":5123,"count":180,"max":[143],"min":[0],"type":"SCALAR"},{"bufferView":20,"componentType":5126,"count":80,"max":[10.4375,2.0625,0.4375],"min":[9.5625,1.3125,-0.3125],"type":"VEC3"},{"bufferView":21,"componentType":5126,"count":80,"max":[1,1,1],"min":[-1,-1,-1],"type":"VEC3"},{"bufferView":22,"componentType":5126,"count":80,"max":[0.546875,0.5390625],"min":[0.26171875,0.28515625],"type":"VEC2"},{"bufferView":23,"componentType":5123,"count":96,"max":[79],"min":[0],"type":"SCALAR"},{"bufferView":24,"componentType":5126,"count":120,"max":[9.5625,1.375,0.375],"min":[3.4375,0.75,-0.25],"type":"VEC3"},{"bufferView":25,"componentType":5126,"count":120,"max":[1,1,1],"min":[-1,-1,-1],"type":"VEC3"},{"bufferView":26,"componentType":5126,"count":120,"max":[0.6640625,0.6875],"min":[0.0390625,0.04281872510910034],"type":"VEC2"},{"bufferView":27,"componentType":5123,"count":144,"max":[119],"min":[0],"type":"SCALAR"},{"bufferView":28,"componentType":5126,"count":80,"max":[8.125,1.375,0.4375],"min":[5.625,0.625,-0.3125],"type":"VEC3"},{"bufferView":29,"componentType":5126,"count":80,"max":[1,1,1],"min":[-1,-1,-1],"type":"VEC3"},{"bufferView":30,"componentType":5126,"count":80,"max":[0.54296875,0.54296875],"min":[0.15625,0.078125],"type":"VEC2"},{"bufferView":31,"componentType":5123,"count":96,"max":[79],"min":[0],"type":"SCALAR"}],"materials":[{"pbrMetallicRoughness":{"metallicFactor":0,"roughnessFactor":1,"baseColorTexture":{"index":0}},"alphaMode":"MASK","alphaCutoff":0.05,"doubleSided":true}],"textures":[{"sampler":0,"source":0,"name":"shotgun_2_texture.png"}],"samplers":[{"magFilter":9728,"minFilter":9728,"wrapS":33071,"wrapT":33071}],"images":[{"mimeType":"image/png","uri":"data:image/png;base64,"}],"meshes":[{"primitives":[{"mode":4,"attributes":{"POSITION":0,"NORMAL":1,"TEXCOORD_0":2},"indices":3,"material":0}]},{"primitives":[{"mode":4,"attributes":{"POSITION":4,"NORMAL":5,"TEXCOORD_0":6},"indices":7,"material":0}]},{"primitives":[{"mode":4,"attributes":{"POSITION":8,"NORMAL":9,"TEXCOORD_0":10},"indices":11,"material":0}]},{"primitives":[{"mode":4,"attributes":{"POSITION":12,"NORMAL":13,"TEXCOORD_0":14},"indices":15,"material":0}]},{"primitives":[{"mode":4,"attributes":{"POSITION":16,"NORMAL":17,"TEXCOORD_0":18},"indices":19,"material":0}]},{"primitives":[{"mode":4,"attributes":{"POSITION":20,"NORMAL":21,"TEXCOORD_0":22},"indices":23,"material":0}]},{"primitives":[{"mode":4,"attributes":{"POSITION":24,"NORMAL":25,"TEXCOORD_0":26},"indices":27,"material":0}]},{"primitives":[{"mode":4,"attributes":{"POSITION":28,"NORMAL":29,"TEXCOORD_0":30},"indices":31,"material":0}]}]}