{"asset":{"version":"2.0","generator":"Blockbench 4.8.3 glTF exporter"},"scenes":[{"nodes":[13],"name":"blockbench_export"}],"scene":0,"nodes":[{"rotation":[-0.7071067811865475,0,0,0.7071067811865476],"name":"handel","mesh":0},{"name":"cuboid","mesh":1},{"name":"handel","children":[0,1]},{"name":"body","mesh":2},{"rotation":[0.7071067811865475,-0.7071067811865476,-1.0471804751334409e-15,1.1337760807569905e-15],"translation":[-1.4062500000000002,1.9375000000000002,0.21875],"name":"cylinder","mesh":3},{"rotation":[0.7071067811865475,-0.7071067811865476,-1.0471804751334409e-15,1.1337760807569905e-15],"translation":[-1.4062500000000002,1.6875000000000002,0.21875],"name":"cylinder","mesh":4},{"name":"cuboid","mesh":5},{"name":"cuboid","mesh":6},{"rotation":[0,0,0.7071067811865475,0.7071067811865476],"translation":[-2.7499999999999996,2.5625,-5.782411586589357e-18],"name":"tube","mesh":7},{"name":"body","children":[3,4,5,6,7,8]},{"name":"cylinder","mesh":8},{"name":"cylinder","mesh":9},{"name":"muzzle","children":[10,11]},{"children":[2,9,12]}],"bufferViews":[{"buffer":0,"byteOffset":0,"byteLength":2496,"target":34962,"byteStride":12},{"buffer":0,"byteOffset":2496,"byteLength":2496,"target":34962,"byteStride":12},{"buffer":0,"byteOffset":4992,"byteLength":1664,"target":34962,"byteStride":8},{"buffer":0,"byteOffset":6656,"byteLength":624,"target":34963},{"buffer":0,"byteOffset":7280,"byteLength":600,"target":34962,"byteStride":12},{"buffer":0,"byteOffset":7880,"byteLength":600,"target":34962,"byteStride":12},{"buffer":0,"byteOffset":8480,"byteLength":400,"target":34962,"byteStride":8},{"buffer":0,"byteOffset":8880,"byteLength":144,"target":34963},{"buffer":0,"byteOffset":9024,"byteLength":480,"target":34962,"byteStride":12},{"buffer":0,"byteOffset":9504,"byteLength":480,"target":34962,"byteStride":12},{"buffer":0,"byteOffset":9984,"byteLength":320,"target":34962,"byteStride":8},{"buffer":0,"byteOffset":10304,"byteLength":120,"target":34963},{"buffer":0,"byteOffset":10424,"byteLength":360,"target":34962,"byteStride":12},{"buffer":0,"byteOffset":10784,"byteLength":360,"target":34962,"byteStride":12},{"buffer":0,"byteOffset":11144,"byteLength":240,"target":34962,"byteStride":8},{"buffer":0,"byteOffset":11384,"byteLength":72,"target":34963},{"buffer":0,"byteOffset":11456,"byteLength":360,"target":34962,"byteStride":12},{"buffer":0,"byteOffset":11816,"byteLength":360,"target":34962,"byteStride":12},{"buffer":0,"byteOffset":12176,"byteLength":240,"target":34962,"byteStride":8},{"buffer":0,"byteOffset":12416,"byteLength":72,"target":34963},{"buffer":0,"byteOffset":12488,"byteLength":2208,"target":34962,"byteStride":12},{"buffer":0,"byteOffset":14696,"byteLength":2208,"target":34962,"byteStride":12},{"buffer":0,"byteOffset":16904,"byteLength":1472,"target":34962,"byteStride":8},{"buffer":0,"byteOffset":18376,"byteLength":552,"target":34963},{"buffer":0,"byteOffset":18928,"byteLength":480,"target":34962,"byteStride":12},{"buffer":0,"byteOffset":19408,"byteLength":480,"target":34962,"byteStride":12},{"buffer":0,"byteOffset":19888,"byteLength":320,"target":34962,"byteStride":8},{"buffer":0,"byteOffset":20208,"byteLength":120,"target":34963},{"buffer":0,"byteOffset":20328,"byteLength":1056,"target":34962,"byteStride":12},{"buffer":0,"byteOffset":21384,"byteLength":1056,"target":34962,"byteStride":12},{"buffer":0,"byteOffset":22440,"byteLength":704,"target":34962,"byteStride":8},{"buffer":0,"byteOffset":23144,"byteLength":264,"target":34963},{"buffer":0,"byteOffset":23408,"byteLength":960,"target":34962,"byteStride":12},{"buffer":0,"byteOffset":24368,"byteLength":960,"target":34962,"byteStride":12},{"buffer":0,"byteOffset":25328,"byteLength":640,"target":34962,"byteStride":8},{"buffer":0,"byteOffset":25968,"byteLength":192,"target":34963},{"buffer":0,"byteOffset":26160,"byteLength":1728,"target":34962,"byteStride":12},{"buffer":0,"byteOffset":27888,"byteLength":1728,"target":34962,"byteStride":12},{"buffer":0,"byteOffset":29616,"byteLength":1152,"target":34962,"byteStride":8},{"buffer":0,"byteOffset":30768,"byteLength":384,"target":34963}],"buffers":[{"byteLength":31152,"uri":"data:application/octet-stream;base64,"}],"accessors":[{"bufferView":0,"componentType":5126,"count":208,"max":[0.5,0.25,1],"min":[-0.5,-0.25,-1],"type":"VEC3"},{"bufferView":1,"componentType":5126,"count":208,"max":[1,1,1],"min":[-1,-1,-1],"type":"VEC3"},{"bufferView":2,"componentType":5126,"count":208,"max":[0.5108668208122253,0.42578125],"min":[0.0017280715983361006,0.265625],"type":"VEC2"},{"bufferView":3,"componentType":5123,"count":312,"max":[207],"min":[0],"type":"SCALAR"},{"bufferView":4,"componentType":5126,"count":50,"max":[-0.46875,1,0.09375],"min":[-1.28125,0.5,-0.09375],"type":"VEC3"},{"bufferView":5,"componentType":5126,"count":50,"max":[1,1,1],"min":[-0.9899494647979736,-1,-1],"type":"VEC3"},{"bufferView":6,"componentType":5126,"count":50,"max":[0.484375,0.48046875],"min":[0.03125,0.30078125],"type":"VEC2"},{"bufferView":7,"componentType":5123,"count":72,"max":[49],"min":[0],"type":"SCALAR"},{"bufferView":8,"componentType":5126,"count":40,"max":[1.75,2.375,0.4375],"min":[-3.0625,1,-0.4375],"type":"VEC3"},{"bufferView":9,"componentType":5126,"count":40,"max":[1,1,1],"min":[-1,-1,-1],"type":"VEC3"},{"bufferView":10,"componentType":5126,"count":40,"max":[0.60546875,0.3515625],"min":[0,0],"type":"VEC2"},{"bufferView":11,"componentType":5123,"count":60,"max":[39],"min":[0],"type":"SCALAR"},{"bufferView":12,"componentType":5126,"count":30,"max":[0.05412658676505089,1.15625,-0.21875],"min":[-0.05412658676505089,-1.15625,-0.3125],"type":"VEC3"},{"bufferView":13,"componentType":5126,"count":30,"max":[0.8660253882408142,1,1],"min":[-0.8660253882408142,-1,-0.6546536684036255],"type":"VEC3"},{"bufferView":14,"componentType":5126,"count":30,"max":[0.4609375,0.5703125],"min":[0.051304686814546585,0.3359375],"type":"VEC2"},{"bufferView":15,"componentType":5123,"count":36,"max":[29],"min":[0],"type":"SCALAR"},{"bufferView":16,"componentType":5126,"count":30,"max":[0.05412658676505089,1.15625,-0.21875],"min":[-0.05412658676505089,-1.15625,-0.3125],"type":"VEC3"},{"bufferView":17,"componentType":5126,"count":30,"max":[0.8660253882408142,1,1],"min":[-0.8660253882408142,-1,-0.6546536684036255],"type":"VEC3"},{"bufferView":18,"componentType":5126,"count":30,"max":[0.4760390520095825,0.57421875],"min":[0.0625,0.21484375],"type":"VEC2"},{"bufferView":19,"componentType":5123,"count":36,"max":[29],"min":[0],"type":"SCALAR"},{"bufferView":20,"componentType":5126,"count":184,"max":[-1.53125,2.4375,0.71875],"min":[-1.96875,2.375,-0.21875],"type":"VEC3"},{"bufferView":21,"componentType":5126,"count":184,"max":[1,1,1],"min":[-1,-1,-1],"type":"VEC3"},{"bufferView":22,"componentType":5126,"count":184,"max":[0.453125,0.45703125],"min":[0,0.21484375],"type":"VEC2"},{"bufferView":23,"componentType":5123,"count":276,"max":[183],"min":[0],"type":"SCALAR"},{"bufferView":24,"componentType":5126,"count":40,"max":[1.5625,2.625,0.3125],"min":[1.4375,2.375,-0.3125],"type":"VEC3"},{"bufferView":25,"componentType":5126,"count":40,"max":[1,0.7071067690849304,0.7071067690849304],"min":[-1,-1,-0.7071067690849304],"type":"VEC3"},{"bufferView":26,"componentType":5126,"count":40,"max":[0.3984375,0.49609375],"min":[0,0.24609375],"type":"VEC2"},{"bufferView":27,"componentType":5123,"count":60,"max":[39],"min":[0],"type":"SCALAR"},{"bufferView":28,"componentType":5126,"count":88,"max":[0.25,0.1875,0.27900636196136475],"min":[-0.1875,-0.1875,-0.27900636196136475],"type":"VEC3"},{"bufferView":29,"componentType":5126,"count":88,"max":[1,1,0.9993436932563782],"min":[-1,-1,-0.9993436932563782],"type":"VEC3"},{"bufferView":30,"componentType":5126,"count":88,"max":[0.46875,0.4921875],"min":[0.01171875,0.39453125],"type":"VEC2"},{"bufferView":31,"componentType":5123,"count":132,"max":[87],"min":[0],"type":"SCALAR"},{"bufferView":32,"componentType":5126,"count":80,"max":[-3.0625,1.9578404426574707,0.2703405022621155],"min":[-3.5625,1.4171595573425293,-0.2703405022621155],"type":"VEC3"},{"bufferView":33,"componentType":5126,"count":80,"max":[1,0.9396926164627075,0.9396926164627075],"min":[-1,-0.9396926164627075,-0.9396926164627075],"type":"VEC3"},{"bufferView":34,"componentType":5126,"count":80,"max":[0.4921875,0.47265625],"min":[0.05078125,0.24609375],"type":"VEC2"},{"bufferView":35,"componentType":5123,"count":96,"max":[79],"min":[0],"type":"SCALAR"},{"bufferView":36,"componentType":5126,"count":144,"max":[-3.5625,2.125,0.4375],"min":[-8.8125,1.25,-0.4375],"type":"VEC3"},{"bufferView":37,"componentType":5126,"count":144,"max":[1,1,1],"min":[-1,-1,-1],"type":"VEC3"},{"bufferView":38,"componentType":5126,"count":144,"max":[0.53125,0.484375],"min":[0.03187151253223419,0.015625],"type":"VEC2"},{"bufferView":39,"componentType":5123,"count":192,"max":[143],"min":[0],"type":"SCALAR"}],"materials":[{"pbrMetallicRoughness":{"metallicFactor":0,"roughnessFactor":1,"baseColorTexture":{"index":0}},"alphaMode":"MASK","alphaCutoff":0.05,"doubleSided":true}],"textures":[{"sampler":0,"source":0,"name":"smg_1texture.png"}],"samplers":[{"magFilter":9728,"minFilter":9728,"wrapS":33071,"wrapT":33071}],"images":[{"mimeType":"image/png","uri":"data:image/png;base64,"}],"meshes":[{"primitives":[{"mode":4,"attributes":{"POSITION":0,"NORMAL":1,"TEXCOORD_0":2},"indices":3,"material":0}]},{"primitives":[{"mode":4,"attributes":{"POSITION":4,"NORMAL":5,"TEXCOORD_0":6},"indices":7,"material":0}]},{"primitives":[{"mode":4,"attributes":{"POSITION":8,"NORMAL":9,"TEXCOORD_0":10},"indices":11,"material":0}]},{"primitives":[{"mode":4,"attributes":{"POSITION":12,"NORMAL":13,"TEXCOORD_0":14},"indices":15,"material":0}]},{"primitives":[{"mode":4,"attributes":{"POSITION":16,"NORMAL":17,"TEXCOORD_0":18},"indices":19,"material":0}]},{"primitives":[{"mode":4,"attributes":{"POSITION":20,"NORMAL":21,"TEXCOORD_0":22},"indices":23,"material":0}]},{"primitives":[{"mode":4,"attributes":{"POSITION":24,"NORMAL":25,"TEXCOORD_0":26},"indices":27,"material":0}]},{"primitives":[{"mode":4,"attributes":{"POSITION":28,"NORMAL":29,"TEXCOORD_0":30},"indices":31,"material":0}]},{"primitives":[{"mode":4,"attributes":{"POSITION":32,"NORMAL":33,"TEXCOORD_0":34},"indices":35,"material":0}]},{"primitives":[{"mode":4,"attributes":{"POSITION":36,"NORMAL":37,"TEXCOORD_0":38},"indices":39,"material":0}]}]}